<?xml version="1.0" encoding="iso-8859-1"?>
<!-- Generator: Adobe Illustrator 16.0.0, SVG Export Plug-In . SVG Version: 6.00 Build 0)  -->
<!DOCTYPE svg PUBLIC "-//W3C//DTD SVG 1.1//EN" "http://www.w3.org/Graphics/SVG/1.1/DTD/svg11.dtd">
<svg version="1.1" id="Capa_1" xmlns="http://www.w3.org/2000/svg" xmlns:xlink="http://www.w3.org/1999/xlink" x="0px" y="0px"
	 width="491.977px" height="491.977px" viewBox="0 0 491.977 491.977" style="enable-background:new 0 0 491.977 491.977;"
	 xml:space="preserve">
<g>
	<g>
		<path d="M470.949,0H21.026C9.413,0,0,9.413,0,21.026v449.925c0,11.613,9.413,21.025,21.026,21.025h449.925
			c11.613,0,21.025-9.412,21.025-21.025V21.026C491.977,9.413,482.562,0,470.949,0z M452.229,452.059H156.321v4.467
			c0,7.549-6.119,13.668-13.667,13.668s-13.667-6.119-13.667-13.668v-4.467H39.748v-23.055h89.24v-5.447
			c0-7.549,6.119-13.668,13.667-13.668s13.667,6.119,13.667,13.668v5.447h295.907V452.059z M458.977,389.23H32.999V27.749h425.979
			V389.23H458.977z"/>
		<path d="M245.988,56.489c-85.467,0-155,69.533-155,155c0,85.466,69.533,155,155,155c85.467,0,155-69.533,155-155
			C400.988,126.022,331.455,56.489,245.988,56.489z M308.957,225.367l-75.19,54.61c-2.985,2.168-6.524,3.273-10.08,3.273
			c-2.659,0-5.328-0.617-7.786-1.869c-5.746-2.93-9.363-8.833-9.363-15.281V156.88c0-6.449,3.617-12.354,9.363-15.281
			c5.745-2.929,12.648-2.387,17.866,1.404l75.19,54.609c4.443,3.227,7.072,8.386,7.072,13.877
			C316.029,216.982,313.4,222.14,308.957,225.367z"/>
	</g>
</g>
<g>
</g>
<g>
</g>
<g>
</g>
<g>
</g>
<g>
</g>
<g>
</g>
<g>
</g>
<g>
</g>
<g>
</g>
<g>
</g>
<g>
</g>
<g>
</g>
<g>
</g>
<g>
</g>
<g>
</g>
</svg>
